HIERARCHY
ROOT Hips
{
	OFFSET 0.00000 0.00000 0.00000
	CHANNELS 6 Xposition Yposition Zposition Zrotation Yrotation Xrotation 
	JOINT LHipJoint
	{
		OFFSET 0 0 0
		CHANNELS 3 Zrotation Yrotation Xrotation
		JOINT LeftUpLeg
		{
			OFFSET 1.57338 -1.94743 0.52196
			CHANNELS 3 Zrotation Yrotation Xrotation
			JOINT LeftLeg
			{
				OFFSET 2.60333 -7.15259 0.00000
				CHANNELS 3 Zrotation Yrotation Xrotation
				JOINT LeftFoot
				{
					OFFSET 2.77855 -7.63400 0.00000
					CHANNELS 3 Zrotation Yrotation Xrotation
					JOINT LeftToeBase
					{
						OFFSET 0.19847 -0.54529 2.28466
						CHANNELS 3 Zrotation Yrotation Xrotation
						End Site
						{
							OFFSET 0.00000 -0.00000 1.17993
						}
					}
				}
			}
		}
	}
	JOINT RHipJoint
	{
		OFFSET 0 0 0
		CHANNELS 3 Zrotation Yrotation Xrotation
		JOINT RightUpLeg
		{
			OFFSET -1.61527 -1.94743 0.52196
			CHANNELS 3 Zrotation Yrotation Xrotation
			JOINT RightLeg
			{
				OFFSET -2.53829 -6.97390 0.00000
				CHANNELS 3 Zrotation Yrotation Xrotation
				JOINT RightFoot
				{
					OFFSET -2.80762 -7.71387 0.00000
					CHANNELS 3 Zrotation Yrotation Xrotation
					JOINT RightToeBase
					{
						OFFSET -0.30536 -0.83898 2.28801
						CHANNELS 3 Zrotation Yrotation Xrotation
						End Site
						{
							OFFSET -0.00000 -0.00000 1.21323
						}
					}
				}
			}
		}
	}
	JOINT LowerBack
	{
		OFFSET 0 0 0
		CHANNELS 3 Zrotation Yrotation Xrotation
		JOINT Spine
		{
			OFFSET -0.04381 1.99497 -0.19778
			CHANNELS 3 Zrotation Yrotation Xrotation
			JOINT Spine1
			{
				OFFSET -0.01959 2.01295 -0.04372
				CHANNELS 3 Zrotation Yrotation Xrotation
				JOINT Neck
				{
					OFFSET 0 0 0
					CHANNELS 3 Zrotation Yrotation Xrotation
					JOINT Neck1
					{
						OFFSET -0.05459 1.76913 0.09708
						CHANNELS 3 Zrotation Yrotation Xrotation
						JOINT Head
						{
							OFFSET 0.09461 1.77368 -0.11172
							CHANNELS 3 Zrotation Yrotation Xrotation
							End Site
							{
								OFFSET 0.03812 1.78157 -0.04834
							}
						}
					}
				}
				JOINT LeftShoulder
				{
					OFFSET 0 0 0
					CHANNELS 3 Zrotation Yrotation Xrotation
					JOINT LeftArm
					{
						OFFSET 3.50922 1.24034 -0.28866
						CHANNELS 3 Zrotation Yrotation Xrotation
						JOINT LeftForeArm
						{
							OFFSET 5.40188 -0.00000 0.00000
							CHANNELS 3 Zrotation Yrotation Xrotation
							JOINT LeftHand
							{
								OFFSET 3.68559 -0.00000 0.00000
								CHANNELS 3 Zrotation Yrotation Xrotation
								JOINT LeftFingerBase
								{
									OFFSET 0 0 0
									CHANNELS 3 Zrotation Yrotation Xrotation
									JOINT LeftHandIndex1
									{
										OFFSET 0.61753 -0.00000 0.00000
										CHANNELS 3 Zrotation Yrotation Xrotation
										End Site
										{
											OFFSET 0.49787 -0.00000 0.00000
										}
									}
								}
								JOINT LThumb
								{
									OFFSET 0 0 0
									CHANNELS 3 Zrotation Yrotation Xrotation
									End Site
									{
										OFFSET 0.50547 -0.00000 0.50547
									}
								}
							}
						}
					}
				}
				JOINT RightShoulder
				{
					OFFSET 0 0 0
					CHANNELS 3 Zrotation Yrotation Xrotation
					JOINT RightArm
					{
						OFFSET -2.95373 1.39649 -0.27346
						CHANNELS 3 Zrotation Yrotation Xrotation
						JOINT RightForeArm
						{
							OFFSET -6.10670 -0.00000 -0.00000
							CHANNELS 3 Zrotation Yrotation Xrotation
							JOINT RightHand
							{
								OFFSET -3.63052 -0.00000 0.00000
								CHANNELS 3 Zrotation Yrotation Xrotation
								JOINT RightFingerBase
								{
									OFFSET 0 0 0
									CHANNELS 3 Zrotation Yrotation Xrotation
									JOINT RightHandIndex1
									{
										OFFSET -0.58385 -0.00000 0.00000
										CHANNELS 3 Zrotation Yrotation Xrotation
										End Site
										{
											OFFSET -0.47071 -0.00000 0.00000
										}
									}
								}
								JOINT RThumb
								{
									OFFSET 0 0 0
									CHANNELS 3 Zrotation Yrotation Xrotation
									End Site
									{
										OFFSET -0.47790 -0.00000 0.47790
									}
								}
							}
						}
					}
				}
			}
		}
	}
}
MOTION
Frames: 16
Frame Time: .0083333
-1.3065 18.692 -3.1268 0 0 0 0 0 0 -21 0 0 0 0 0 0 0 0 0 0 0 0 0 0 21 0 0 0 0 0 0 0 0 0 0 0 0 0 0 0 0 0 0 0 0 0 0 -16 0 0 21 0 0 11 0 0 0 -8 0 0 0 0 0 0 0 0 0 0 0 0 0 0 0 0 0 0 0 0 8 0 0 0 0 0 0 0 0 0 0 0 0 0 0 0 0 0
-1.3065 18.6920 -3.1268 1.7572 -8.3227 1.5890 0.0000 0.0000 0.0000 -19.4268 -7.2083 -4.3200 1.5239 7.7947 22.0921 0.8909 13.3155 -27.1390 0.0095 0.6308 1.7334 0.0000 0.0000 0.0000 18.6019 21.5307 -1.8358 -2.0390 -8.9468 25.6292 -0.8687 -10.8055 -24.6200 -0.0065 0.5195 -1.4275 -4.4006 -0.5433 3.3105 -1.0354 -0.8991 0.4382 1.4422 -0.4294 -1.3551 -10.7312 -6.2238 -8.4372 18.1329 -8.8882 6.8816 6.8207 -3.8229 4.7884 -0.0000 -0.0000 0.0000 -86.5233 0.6378 12.1489 11.0400 -18.3496 -1.7885 -0.0000 -0.0000 11.6947 30.0086 16.8083 9.4815 -7.1250 0.0000 -0.0000 2.1318 49.1987 0.2208 -0.0000 -0.0000 0.0000 80.4764 -7.1587 21.0764 -15.6136 24.9940 -3.4811 0.0000 0.0000 18.1709 -24.2689 4.1636 -1.8749 7.1250 -0.0000 -0.0000 1.7875 -25.4139 0.8478
-1.3062 18.6906 -3.1300 1.8195 -8.2424 1.5593 0.0000 0.0000 0.0000 -19.4868 -7.2497 -4.2138 1.5076 7.7549 21.9720 0.9235 13.1234 -27.1977 0.0134 0.7479 2.0553 0.0000 0.0000 0.0000 18.5338 21.4627 -1.8534 -2.0470 -8.9634 25.6809 -0.8725 -10.8018 -24.6478 -0.0070 0.5390 -1.4811 -4.3951 -0.5019 3.3567 -1.0463 -0.8451 0.4806 1.4259 -0.4034 -1.3408 -10.7518 -6.2217 -8.4428 18.1491 -8.8841 6.8858 6.8300 -3.8201 4.7918 -0.0000 -0.0000 0.0000 -86.4846 0.7748 12.4140 11.3167 -18.7720 -1.8766 -0.0000 -0.0000 11.4146 29.8793 17.0573 9.5662 -7.1250 0.0000 -0.0000 1.9715 49.4566 0.2167 -0.0000 -0.0000 0.0000 80.3124 -7.1831 21.2558 -15.6086 24.9870 -3.4790 0.0000 0.0000 17.8689 -22.8971 -0.7466 0.3153 7.1250 -0.0000 -0.0000 2.9167 -30.7830 1.0142
-1.3062 18.6923 -3.1328 1.9501 -8.1303 1.5338 0.0000 0.0000 0.0000 -19.6273 -7.2758 -4.1665 1.5038 7.7454 21.9433 0.9296 13.0597 -27.1826 0.0119 0.7029 1.9317 0.0000 0.0000 0.0000 18.3726 21.3200 -1.8815 -2.0453 -8.9597 25.6694 -0.8804 -10.7459 -24.6634 -0.0079 0.5723 -1.5727 -4.4173 -0.4791 3.3485 -1.0961 -0.8136 0.5479 1.3854 -0.3900 -1.2691 -10.7778 -6.2148 -8.3573 18.1527 -8.8593 6.7570 6.8390 -3.8165 4.7361 -0.0000 -0.0000 0.0000 -86.4062 0.8140 12.5886 11.5249 -19.0884 -1.9441 -0.0000 -0.0000 11.1304 29.8437 17.1473 9.6006 -7.1250 0.0000 -0.0000 1.9242 49.5513 0.2160 -0.0000 -0.0000 0.0000 80.1898 -7.1194 21.1899 -15.6253 25.0100 -3.4860 0.0000 0.0000 18.2118 -23.1121 1.7743 -0.7571 7.1250 -0.0000 -0.0000 2.6804 -28.0473 1.1064
-1.3067 18.6947 -3.1378 1.8751 -8.0241 1.5897 0.0000 0.0000 0.0000 -19.5398 -7.4330 -4.1308 1.4962 7.7268 21.8874 0.9354 13.0568 -27.2226 0.0147 0.7836 2.1535 0.0000 0.0000 0.0000 18.4305 21.2609 -1.9706 -2.0473 -8.9638 25.6822 -0.8859 -10.7393 -24.7024 -0.0078 0.5698 -1.5657 -4.2325 -0.4396 3.3711 -1.0884 -0.7544 0.5785 1.2876 -0.3619 -1.2561 -10.7947 -6.2047 -8.3697 18.1433 -8.8300 6.6828 6.8409 -3.8044 4.7120 -0.0000 -0.0000 0.0000 -86.3096 0.7983 12.8590 11.6640 -19.2989 -1.9899 -0.0000 -0.0000 10.7245 29.9773 17.0921 9.6220 -7.1250 0.0000 -0.0000 2.0648 49.5123 0.2298 -0.0000 -0.0000 0.0000 80.0662 -7.0900 21.3581 -15.5219 24.8681 -3.4424 0.0000 0.0000 17.0869 -23.9767 3.4659 -1.5401 7.1250 -0.0000 -0.0000 2.0050 -26.1867 0.9150
-1.3064 18.6949 -3.1429 1.8723 -7.9451 1.6289 0.0000 0.0000 0.0000 -19.5456 -7.6474 -4.0756 1.4891 7.7091 21.8341 0.9519 13.0764 -27.3631 0.0213 0.9428 2.5915 0.0000 0.0000 0.0000 18.4003 21.2021 -2.0690 -2.0504 -8.9702 25.7023 -0.8888 -10.7340 -24.7208 -0.0065 0.5196 -1.4278 -4.1310 -0.4020 3.4073 -1.0902 -0.7017 0.6099 1.2269 -0.3365 -1.2481 -10.7970 -6.1724 -8.4179 18.1140 -8.7702 6.6332 6.8360 -3.7755 4.6950 0.0000 0.0000 0.0000 -86.2343 0.8609 13.1398 11.8955 -19.6477 -2.0670 -0.0000 -0.0000 10.2322 30.1361 16.8578 9.5561 -7.1250 0.0000 -0.0000 2.2525 49.2759 0.2376 0.0000 0.0000 0.0000 79.9080 -7.0422 21.4743 -15.4545 24.7755 -3.4142 0.0000 0.0000 16.4367 -23.1760 -0.3140 0.1344 7.1250 -0.0000 -0.0000 2.6809 -30.3156 0.9620
-1.3072 18.6951 -3.1471 1.9392 -7.8073 1.6732 0.0000 0.0000 0.0000 -19.6014 -7.7464 -4.0912 1.4822 7.6921 21.7828 0.9595 12.9856 -27.3335 0.0225 0.9694 2.6648 0.0000 0.0000 0.0000 18.3011 21.1307 -2.1674 -2.0552 -8.9801 25.7331 -0.8925 -10.7441 -24.7599 -0.0047 0.4442 -1.2206 -4.1250 -0.3773 3.4218 -1.0996 -0.6689 0.6266 1.2125 -0.3205 -1.2409 -10.7649 -6.1451 -8.4522 18.0312 -8.7188 6.5998 6.8070 -3.7522 4.6774 -0.0000 -0.0000 0.0000 -86.1844 1.0068 13.4615 12.1906 -20.0899 -2.1673 -0.0000 -0.0000 9.7988 30.2645 16.8700 9.6112 -7.1250 0.0000 -0.0000 2.3790 49.3115 0.2531 -0.0000 -0.0000 0.0000 79.7704 -6.9668 20.4114 -15.6690 25.0698 -3.5045 0.0000 0.0000 19.9954 -22.0559 1.2382 -0.5016 7.1250 -0.0000 -0.0000 3.5115 -28.6369 1.4014
-1.3082 18.6973 -3.1509 2.0732 -7.5986 1.7154 0.0000 0.0000 0.0000 -19.7129 -7.8409 -4.1306 1.4770 7.6791 21.7435 0.9756 12.7941 -27.2733 0.0272 1.0649 2.9273 0.0000 0.0000 0.0000 18.1237 20.9890 -2.2927 -2.0612 -8.9924 25.7715 -0.8927 -10.7824 -24.7958 -0.0045 0.4348 -1.1948 -4.1991 -0.3957 3.4510 -1.1063 -0.6972 0.6431 1.2485 -0.3346 -1.2380 -10.7669 -6.1083 -8.5335 17.9439 -8.6494 6.5895 6.7833 -3.7183 4.6733 0.0000 0.0000 0.0000 -86.1515 1.0740 13.6378 12.3815 -20.3743 -2.2333 -0.0000 -0.0000 9.4630 30.2990 16.9846 9.6865 -7.1250 0.0000 -0.0000 2.3996 49.4464 0.2632 0.0000 0.0000 0.0000 79.5911 -6.8727 20.4493 -15.3856 24.6806 -3.3853 0.0000 0.0000 19.0426 -24.1643 6.2952 -2.8165 7.1250 -0.0000 -0.0000 1.8970 -23.0866 1.0018
-1.3106 18.7000 -3.1581 2.1343 -7.3745 1.8164 0.0000 0.0000 0.0000 -19.7130 -7.9555 -4.2765 1.4769 7.6788 21.7427 0.9852 12.5968 -27.1609 0.0397 1.2868 3.5382 0.0000 0.0000 0.0000 18.0281 20.9423 -2.4446 -2.0648 -8.9997 25.7944 -0.8875 -10.8889 -24.8487 -0.0030 0.3530 -0.9699 -4.2045 -0.4101 3.4571 -1.1030 -0.7171 0.6342 1.2559 -0.3442 -1.2494 -10.6956 -6.0765 -8.5414 17.7931 -8.5915 6.5580 6.7264 -3.6951 4.6455 -0.0000 0.0000 0.0000 -86.0628 1.1214 13.7998 12.5453 -20.6174 -2.2907 -0.0000 -0.0000 9.2559 30.3040 17.2976 9.8582 -7.1250 0.0000 -0.0000 2.3658 49.7998 0.2801 -0.0000 0.0000 0.0000 79.4459 -6.7882 20.3457 -15.2076 24.4346 -3.3114 0.0000 0.0000 19.0015 -24.4376 4.9397 -2.2407 7.1250 -0.0000 -0.0000 1.6698 -24.5568 0.8252
-1.3159 18.7026 -3.1704 2.0659 -7.1018 1.9717 0.0000 0.0000 0.0000 -19.5314 -8.0413 -4.5334 1.4785 7.6830 21.7553 0.9717 12.4126 -26.8907 0.0575 1.5480 4.2579 0.0000 0.0000 0.0000 18.0926 20.9804 -2.6137 -2.0659 -9.0021 25.8018 -0.8892 -11.0446 -25.0020 -0.0013 0.2355 -0.6471 -4.0817 -0.4029 3.4798 -1.0795 -0.7051 0.5938 1.2113 -0.3371 -1.3055 -10.6093 -6.0632 -8.4790 17.6342 -8.5627 6.5069 6.6628 -3.6901 4.6031 0.0000 -0.0000 0.0000 -85.9523 1.2057 13.9861 12.7521 -20.9228 -2.3640 -0.0000 -0.0000 9.2360 30.2907 17.4720 9.9474 -7.1250 0.0000 -0.0000 2.3302 49.9936 0.2870 0.0000 -0.0000 0.0000 79.3074 -6.7781 19.8226 -15.2734 24.5256 -3.3386 0.0000 0.0000 20.5258 -22.6823 2.7109 -1.1324 7.1250 -0.0000 -0.0000 2.9967 -27.0390 1.3085
-1.3215 18.7027 -3.1774 1.9597 -6.8152 2.1042 0.0000 0.0000 0.0000 -19.3053 -7.9731 -4.8185 1.4838 7.6961 21.7948 0.9586 12.1314 -26.5331 0.0659 1.6561 4.5562 0.0000 0.0000 0.0000 18.2108 20.9539 -2.7347 -2.0645 -8.9993 25.7930 -0.8774 -11.3032 -25.1411 -0.0008 0.1788 -0.4912 -3.9456 -0.4097 3.4683 -1.0310 -0.7076 0.5988 1.1849 -0.3390 -1.2948 -10.5431 -6.0289 -8.4559 17.5129 -8.4950 6.3902 6.6177 -3.6649 4.5451 0.0000 0.0000 0.0000 -85.8472 1.2817 14.2374 12.9631 -21.2331 -2.4399 -0.0000 -0.0000 8.9481 30.3808 17.3361 9.9088 -7.1250 0.0000 -0.0000 2.4380 49.8565 0.2921 0.0000 0.0000 0.0000 79.1111 -6.7837 20.1726 -15.2052 24.4312 -3.3104 0.0000 0.0000 19.1583 -23.9261 3.4231 -1.5175 7.1250 -0.0000 -0.0000 2.0434 -26.2348 0.9302
-1.3264 18.6992 -3.1762 1.9584 -6.5818 2.1240 0.0000 0.0000 0.0000 -19.2190 -7.7905 -4.9882 1.4922 7.7167 21.8570 0.9678 11.7126 -26.2229 0.0477 1.4100 3.8778 0.0000 0.0000 0.0000 18.2396 20.8542 -2.7372 -2.0617 -8.9935 25.7749 -0.8491 -11.6062 -25.1922 -0.0014 0.2449 -0.6728 -3.9037 -0.3906 3.4709 -1.0205 -0.6793 0.6368 1.1709 -0.3261 -1.2590 -10.5112 -5.9950 -8.5538 17.4470 -8.4461 6.4595 6.5935 -3.6361 4.5708 0.0000 0.0000 0.0000 -85.7033 1.3402 14.5935 13.1177 -21.4595 -2.4962 -0.0000 -0.0000 8.5280 30.5689 17.3328 9.9803 -7.1250 0.0000 -0.0000 2.6276 49.8857 0.3167 0.0000 0.0000 0.0000 78.9686 -6.8030 20.4978 -15.1365 24.3359 -3.2820 0.0000 0.0000 17.6081 -25.2480 4.3112 -2.0304 7.1250 -0.0000 -0.0000 1.0519 -25.2151 0.5036
-1.3330 18.6968 -3.1795 1.9008 -6.3468 2.1698 0.0000 0.0000 0.0000 -19.0674 -7.7116 -5.1398 1.4997 7.7355 21.9134 0.9885 11.2993 -26.0131 0.0201 0.9162 2.5183 0.0000 0.0000 0.0000 18.3537 20.8781 -2.7446 -2.0604 -8.9908 25.7666 -0.8093 -11.9859 -25.2286 -0.0024 0.3174 -0.8720 -3.8050 -0.3549 3.5234 -0.9949 -0.6305 0.6329 1.1403 -0.3014 -1.2956 -10.4641 -5.9607 -8.6874 17.3194 -8.4031 6.6347 6.5458 -3.6078 4.6311 -0.0000 -0.0000 0.0000 -85.6029 1.4053 14.7727 13.2653 -21.6748 -2.5505 -0.0000 -0.0000 8.4231 30.8219 17.3780 10.1040 -7.1250 0.0000 -0.0000 2.8770 49.9812 0.3535 -0.0000 -0.0000 0.0000 78.8426 -6.7174 19.4385 -15.3168 24.5855 -3.3566 0.0000 0.0000 20.3187 -21.5346 1.5480 -0.6107 7.1250 -0.0000 -0.0000 3.9066 -28.3079 1.5903
-1.3397 18.6986 -3.1890 1.8402 -6.0212 2.2376 0.0000 0.0000 0.0000 -18.8971 -7.7434 -5.3230 1.5088 7.7577 21.9806 1.0133 10.9189 -25.8724 0.0232 0.9829 2.7019 0.0000 0.0000 0.0000 18.4749 20.9150 -2.7642 -2.0595 -8.9888 25.7604 -0.7928 -12.3234 -25.4197 -0.0013 0.2346 -0.6445 -3.6984 -0.3389 3.6331 -0.9581 -0.6101 0.6232 1.1185 -0.2903 -1.3687 -10.4101 -5.9287 -8.7605 17.1516 -8.3458 6.6752 6.4856 -3.5810 4.6366 0.0000 0.0000 0.0000 -85.5013 1.4113 14.8592 13.3957 -21.8643 -2.5988 -0.0000 -0.0000 8.4130 30.8947 17.2154 10.0426 -7.1250 0.0000 -0.0000 2.9694 49.8103 0.3524 0.0000 0.0000 0.0000 78.7151 -6.6842 19.8038 -14.9430 24.0666 -3.2027 0.0000 0.0000 17.1180 -23.7995 2.9335 -1.2930 7.1250 -0.0000 -0.0000 2.1405 -26.7728 0.9475
-1.3435 18.7003 -3.1982 1.8701 -5.6604 2.2968 0.0000 0.0000 0.0000 -18.8131 -7.6231 -5.5750 1.5186 7.7818 22.0534 1.0205 10.4683 -25.5431 0.0555 1.5206 4.1824 0.0000 0.0000 0.0000 18.4659 20.8090 -2.8562 -2.0612 -8.9925 25.7718 -0.7630 -12.6943 -25.5426 -0.0028 0.3395 -0.9327 -3.6902 -0.3229 3.7646 -0.9303 -0.5942 0.6297 1.1427 -0.2813 -1.4361 -10.3643 -5.9187 -8.9793 17.0042 -8.3143 6.7526 6.4282 -3.5584 4.6836 -0.0000 0.0000 0.0000 -85.3863 1.3065 14.9695 13.4550 -21.9503 -2.6209 -0.0000 -0.0000 8.4181 30.8738 17.3931 10.1328 -7.1250 0.0000 -0.0000 2.9276 50.0076 0.3617 -0.0000 0.0000 0.0000 78.5197 -6.5975 18.8291 -14.9711 24.1058 -3.2141 0.0000 0.0000 19.6657 -22.7825 3.3834 -1.4199 7.1250 -0.0000 -0.0000 2.9128 -26.3089 1.3217
-1.3456 18.7004 -3.2043 1.8272 -5.2565 2.3435 0.0000 0.0000 0.0000 -18.6480 -7.4126 -5.8241 1.5252 7.7978 22.1016 1.0116 9.9244 -25.0165 0.0755 1.7720 4.8760 0.0000 0.0000 0.0000 18.5251 20.6051 -2.9666 -2.0672 -9.0046 25.8097 -0.7347 -13.0199 -25.6411 -0.0064 0.5151 -1.4154 -3.5998 -0.3238 3.9177 -0.8770 -0.5986 0.6051 1.1486 -0.2817 -1.5473 -10.4288 -5.8877 -9.2234 16.9699 -8.2679 6.9650 6.4289 -3.5215 4.7835 0.0000 0.0000 0.0000 -85.3227 1.3027 15.0442 13.5534 -22.0926 -2.6578 -0.0000 -0.0000 8.4277 30.9375 17.6761 10.3145 -7.1250 0.0000 -0.0000 2.9582 50.3388 0.3895 0.0000 0.0000 0.0000 78.2908 -6.6161 18.4231 -14.9338 24.0538 -3.1989 0.0000 0.0000 20.6038 -22.6682 4.3751 -1.8249 7.1250 -0.0000 -0.0000 2.9938 -25.2394 1.4333
